<svg width="401" height="257" viewBox="0 0 401 257" fill="none" xmlns="http://www.w3.org/2000/svg">
<path d="M42.5387 219.026H91.1602V222.594H42.5387V219.026Z" fill="#E7EBF2"/>
<path d="M44.4772 213.997C45.5288 211.077 48.2991 209.13 51.4029 209.13H82.4233C85.5271 209.13 88.2974 211.077 89.349 213.997L91.1602 219.026H42.666L44.4772 213.997Z" fill="#E7EBF2"/>
<path d="M27.519 67.3604V80.8237H166.765L153.273 68.5111L27.519 67.3604Z" stroke="#E7EBF2" stroke-width="3.68056" stroke-miterlimit="10" stroke-linejoin="round"/>
<path d="M106.561 80.8234V68.5107L122.089 80.8234V68.5107L137.745 80.8234V68.5107L153.273 80.8234V68.971V68.5107" stroke="#E7EBF2" stroke-width="3.68056" stroke-miterlimit="10" stroke-linejoin="round"/>
<path d="M44.1934 80.823V67.5898" stroke="#E7EBF2" stroke-width="3.68056" stroke-miterlimit="10" stroke-linejoin="round"/>
<path d="M90.9053 68.5107V80.8234L75.377 68.5107" stroke="#E7EBF2" stroke-width="3.68056" stroke-miterlimit="10" stroke-linejoin="round"/>
<path d="M75.3774 68.5107V80.8234" stroke="#E7EBF2" stroke-width="3.68056" stroke-miterlimit="10" stroke-linejoin="round"/>
<path d="M58.5757 203.374H75.2495V54.8172L66.849 47.7979L58.5757 54.8172V203.374Z" stroke="#E7EBF2" stroke-width="3.68056" stroke-miterlimit="10" stroke-linejoin="round"/>
<path d="M75.2495 55.624H58.5757" stroke="#E7EBF2" stroke-width="3.68056" stroke-miterlimit="10"/>
<path d="M75.2495 93.5938H58.5757" stroke="#E7EBF2" stroke-width="3.68056" stroke-miterlimit="10" stroke-linejoin="round"/>
<path d="M75.2495 105.791H58.5757" stroke="#E7EBF2" stroke-width="3.68056" stroke-miterlimit="10"/>
<path d="M75.2495 117.877H58.5757" stroke="#E7EBF2" stroke-width="3.68056" stroke-miterlimit="10"/>
<path d="M75.2495 130.073H58.5757" stroke="#E7EBF2" stroke-width="3.68056" stroke-miterlimit="10"/>
<path d="M75.2495 142.271H58.5757" stroke="#E7EBF2" stroke-width="3.68056" stroke-miterlimit="10"/>
<path d="M75.2495 154.468H58.5757" stroke="#E7EBF2" stroke-width="3.68056" stroke-miterlimit="10"/>
<path d="M75.2495 166.553H58.5757" stroke="#E7EBF2" stroke-width="3.68056" stroke-miterlimit="10"/>
<path d="M75.2495 178.751H58.5757" stroke="#E7EBF2" stroke-width="3.68056" stroke-miterlimit="10"/>
<path d="M75.2495 190.947H58.5757" stroke="#E7EBF2" stroke-width="3.68056" stroke-miterlimit="10"/>
<path d="M140.926 68.3956L66.8486 47.7979L31.5917 67.475" stroke="#E7EBF2" stroke-width="3.68056" stroke-miterlimit="10" stroke-linejoin="round"/>
<path d="M75.3774 80.8243L58.5763 67.8213" stroke="#E7EBF2" stroke-width="3.68056" stroke-miterlimit="10" stroke-linejoin="round"/>
<path d="M59.0853 81.2832L74.8682 93.1355" stroke="#E7EBF2" stroke-width="3.68056" stroke-miterlimit="10" stroke-linejoin="round"/>
<path d="M59.0859 55.8535L74.9961 67.3606" stroke="#E7EBF2" stroke-width="3.68056" stroke-miterlimit="10" stroke-linejoin="round"/>
<path d="M44.7017 67.8213L57.939 80.5942" stroke="#E7EBF2" stroke-width="3.68056" stroke-miterlimit="10" stroke-linejoin="round"/>
<path d="M43.8115 80.5942L27.6468 67.8213" stroke="#E7EBF2" stroke-width="3.68056" stroke-miterlimit="10" stroke-linejoin="round"/>
<path d="M91.4149 68.3955L106.052 80.2478" stroke="#E7EBF2" stroke-width="3.68056" stroke-miterlimit="10" stroke-linejoin="round"/>
<path d="M59.2126 93.9395L74.8682 105.332" stroke="#E7EBF2" stroke-width="3.68056" stroke-miterlimit="10" stroke-linejoin="round"/>
<path d="M59.2126 106.256L74.8682 117.418" stroke="#E7EBF2" stroke-width="3.68056" stroke-miterlimit="10" stroke-linejoin="round"/>
<path d="M59.0853 118.337L74.8682 129.614" stroke="#E7EBF2" stroke-width="3.68056" stroke-miterlimit="10" stroke-linejoin="round"/>
<path d="M59.0853 130.648L74.8682 141.81" stroke="#E7EBF2" stroke-width="3.68056" stroke-miterlimit="10" stroke-linejoin="round"/>
<path d="M59.0853 142.729L74.8682 153.891" stroke="#E7EBF2" stroke-width="3.68056" stroke-miterlimit="10" stroke-linejoin="round"/>
<path d="M59.0853 154.812L74.8682 166.089" stroke="#E7EBF2" stroke-width="3.68056" stroke-miterlimit="10" stroke-linejoin="round"/>
<path d="M59.0853 167.013L74.8682 178.29" stroke="#E7EBF2" stroke-width="3.68056" stroke-miterlimit="10" stroke-linejoin="round"/>
<path d="M59.0853 179.21L74.8682 190.487" stroke="#E7EBF2" stroke-width="3.68056" stroke-miterlimit="10" stroke-linejoin="round"/>
<path d="M59.0853 191.521L74.8682 202.683" stroke="#E7EBF2" stroke-width="3.68056" stroke-miterlimit="10" stroke-linejoin="round"/>
<path d="M53.8105 203.258H79.889C82.5993 203.258 84.7964 205.455 84.7964 208.165V209.126H48.9031V208.165C48.9031 205.455 51.1002 203.258 53.8105 203.258Z" fill="#E7EBF2"/>
<path d="M93.4516 91.9848L83.9055 100.615C83.2691 101.191 82.3782 101.536 81.6145 101.536H57.6856V81.2832H94.5972V89.7985C94.3426 90.7191 94.088 91.4095 93.4516 91.9848Z" fill="#E7EBF2"/>
<path d="M70.2675 90.4795L63.9742 90.4795C62.6191 90.4795 61.5205 89.3809 61.5205 88.0258L61.5205 87.0646C61.5205 85.7094 62.6191 84.6109 63.9742 84.6109L70.2675 84.6109C71.6227 84.6109 72.7212 85.7094 72.7212 87.0646L72.7212 88.0258C72.7212 89.3809 71.6227 90.4795 70.2675 90.4795Z" fill="white"/>
<path d="M84.747 90.4795L78.4537 90.4795C77.0986 90.4795 76 89.3809 76 88.0258L76 87.0646C76 85.7094 77.0986 84.6109 78.4537 84.6109L84.747 84.6109C86.1022 84.6109 87.2007 85.7094 87.2007 87.0646L87.2007 88.0258C87.2007 89.3809 86.1022 90.4795 84.747 90.4795Z" fill="white"/>
<path d="M30.0145 186.62H25.0239V223.443H30.0145V186.62Z" fill="#B9C0D0"/>
<path d="M65.432 186.62H60.4414V223.443H65.432V186.62Z" fill="#B9C0D0"/>
<path d="M350.975 190.693H346.628V223.004H350.975V190.693Z" fill="#B9C0D0"/>
<path d="M382.045 190.693H377.699V223.004H382.045V190.693Z" fill="#B9C0D0"/>
<path d="M387.519 192.15H341.799V205.395H387.519V192.15Z" fill="#E8EDF8"/>
<path d="M352.907 192.15L348.078 205.395H342.604L347.273 192.15H352.907Z" fill="url(#paint0_linear_17690_262011)"/>
<path d="M364.015 192.15L359.185 205.395H353.711L358.38 192.15H364.015Z" fill="url(#paint1_linear_17690_262011)"/>
<path d="M375.123 192.15L370.293 205.395H364.819L369.488 192.15H375.123Z" fill="url(#paint2_linear_17690_262011)"/>
<path d="M386.231 192.15L381.401 205.395H375.928L380.596 192.15H386.231Z" fill="url(#paint3_linear_17690_262011)"/>
<path d="M71.7108 188.364H19.5508V203.501H71.7108V188.364Z" fill="#E8EDF8"/>
<path d="M32.1076 188.364L26.634 203.355H20.3555L25.829 188.364H32.1076Z" fill="url(#paint4_linear_17690_262011)"/>
<path d="M44.8258 188.364L39.3522 203.355H33.0737L38.3863 188.364H44.8258Z" fill="url(#paint5_linear_17690_262011)"/>
<path d="M57.5436 188.364L52.07 203.355H45.7915L51.1041 188.364H57.5436Z" fill="url(#paint6_linear_17690_262011)"/>
<path d="M70.2619 188.364L64.7883 203.355H58.5098L63.8224 188.364H70.2619Z" fill="url(#paint7_linear_17690_262011)"/>
<path d="M195.51 43.1113V60.8677" stroke="#BBC1CF" stroke-width="3.68056" stroke-miterlimit="10" stroke-linejoin="round"/>
<path d="M195.591 68.5846C198.747 68.5846 201.306 66.2713 201.306 63.4178C201.306 60.5642 198.747 58.251 195.591 58.251C192.434 58.251 189.875 60.5642 189.875 63.4178C189.875 66.2713 192.434 68.5846 195.591 68.5846Z" fill="#B9C0D0"/>
<path d="M190.036 77.1669C190.036 80.3689 193.256 82.9887 197.12 82.1154C199.212 81.6788 200.822 80.2234 201.305 78.3313C201.949 75.566 200.178 72.9462 197.442 72.2184C196.476 71.9273 195.832 71.1996 195.832 70.1808V65.6689" stroke="#BBC1CF" stroke-width="3.68056" stroke-miterlimit="10" stroke-linejoin="round"/>
<path d="M334.603 218.639H273.106V223.151H334.603V218.639Z" fill="url(#paint8_linear_17690_262011)"/>
<path d="M331.687 210.987C330.636 208.067 327.865 206.12 324.762 206.12H282.787C279.683 206.12 276.912 208.067 275.861 210.987L273.106 218.637H334.442L331.687 210.987Z" fill="#CAD0DD"/>
<path d="M353.599 26.8125V43.8412H177.479L194.544 28.2679L353.599 26.8125Z" stroke="#BBC1CF" stroke-width="3.68056" stroke-miterlimit="10" stroke-linejoin="round"/>
<path d="M253.625 43.8428V28.2695L233.985 43.8428V28.2695L214.183 43.8428V28.2695L194.543 43.8428V28.8517V28.2695" stroke="#BBC1CF" stroke-width="3.68056" stroke-miterlimit="10" stroke-linejoin="round"/>
<path d="M332.51 43.8382V27.1006" stroke="#BBC1CF" stroke-width="3.68056" stroke-miterlimit="10" stroke-linejoin="round"/>
<path d="M273.428 28.2695V43.8428L293.068 28.2695" stroke="#BBC1CF" stroke-width="3.68056" stroke-miterlimit="10" stroke-linejoin="round"/>
<path d="M293.068 28.2695V43.8428" stroke="#BBC1CF" stroke-width="3.68056" stroke-miterlimit="10" stroke-linejoin="round"/>
<path d="M314.318 198.845H293.229V10.9475L303.854 2.06934L314.318 10.9475V198.845Z" stroke="#BBC1CF" stroke-width="3.68056" stroke-miterlimit="10" stroke-linejoin="round"/>
<path d="M293.229 11.9668H314.318" stroke="#BBC1CF" stroke-width="3.68056" stroke-miterlimit="10"/>
<path d="M293.229 59.9951H314.318" stroke="#BBC1CF" stroke-width="3.68056" stroke-miterlimit="10" stroke-linejoin="round"/>
<path d="M293.229 75.4209H314.318" stroke="#BBC1CF" stroke-width="3.68056" stroke-miterlimit="10"/>
<path d="M293.229 90.7051H314.318" stroke="#BBC1CF" stroke-width="3.68056" stroke-miterlimit="10"/>
<path d="M293.229 106.137H314.318" stroke="#BBC1CF" stroke-width="3.68056" stroke-miterlimit="10"/>
<path d="M293.229 121.562H314.318" stroke="#BBC1CF" stroke-width="3.68056" stroke-miterlimit="10"/>
<path d="M293.229 136.989H314.318" stroke="#BBC1CF" stroke-width="3.68056" stroke-miterlimit="10"/>
<path d="M293.229 152.272H314.318" stroke="#BBC1CF" stroke-width="3.68056" stroke-miterlimit="10"/>
<path d="M293.229 167.699H314.318" stroke="#BBC1CF" stroke-width="3.68056" stroke-miterlimit="10"/>
<path d="M293.229 183.127H314.318" stroke="#BBC1CF" stroke-width="3.68056" stroke-miterlimit="10"/>
<path d="M210.16 28.1218L303.854 2.06934L348.448 26.9574" stroke="#BBC1CF" stroke-width="3.68056" stroke-miterlimit="10" stroke-linejoin="round"/>
<path d="M293.068 43.8391L314.318 27.3926" stroke="#BBC1CF" stroke-width="3.68056" stroke-miterlimit="10" stroke-linejoin="round"/>
<path d="M313.674 44.4248L293.712 59.4159" stroke="#BBC1CF" stroke-width="3.68056" stroke-miterlimit="10" stroke-linejoin="round"/>
<path d="M313.674 12.2578L293.551 26.8122" stroke="#BBC1CF" stroke-width="3.68056" stroke-miterlimit="10" stroke-linejoin="round"/>
<path d="M331.866 27.3926L315.124 43.548" stroke="#BBC1CF" stroke-width="3.68056" stroke-miterlimit="10" stroke-linejoin="round"/>
<path d="M332.993 43.548L353.439 27.3926" stroke="#BBC1CF" stroke-width="3.68056" stroke-miterlimit="10" stroke-linejoin="round"/>
<path d="M272.784 28.1221L254.27 43.1131" stroke="#BBC1CF" stroke-width="3.68056" stroke-miterlimit="10" stroke-linejoin="round"/>
<path d="M313.513 60.4307L293.712 74.8395" stroke="#BBC1CF" stroke-width="3.68056" stroke-miterlimit="10" stroke-linejoin="round"/>
<path d="M313.513 76.0068L293.712 90.1246" stroke="#BBC1CF" stroke-width="3.68056" stroke-miterlimit="10" stroke-linejoin="round"/>
<path d="M313.674 91.29L293.712 105.553" stroke="#BBC1CF" stroke-width="3.68056" stroke-miterlimit="10" stroke-linejoin="round"/>
<path d="M313.674 106.86L293.712 120.978" stroke="#BBC1CF" stroke-width="3.68056" stroke-miterlimit="10" stroke-linejoin="round"/>
<path d="M313.674 122.143L293.712 136.26" stroke="#BBC1CF" stroke-width="3.68056" stroke-miterlimit="10" stroke-linejoin="round"/>
<path d="M313.674 137.427L293.712 151.69" stroke="#BBC1CF" stroke-width="3.68056" stroke-miterlimit="10" stroke-linejoin="round"/>
<path d="M313.674 152.853L293.712 167.116" stroke="#BBC1CF" stroke-width="3.68056" stroke-miterlimit="10" stroke-linejoin="round"/>
<path d="M313.674 168.279L293.712 182.543" stroke="#BBC1CF" stroke-width="3.68056" stroke-miterlimit="10" stroke-linejoin="round"/>
<path d="M313.674 183.854L293.712 197.972" stroke="#BBC1CF" stroke-width="3.68056" stroke-miterlimit="10" stroke-linejoin="round"/>
<path d="M321.647 198.697H286.063C283.353 198.697 281.156 200.894 281.156 203.605V206.12H326.554V203.605C326.554 200.894 324.357 198.697 321.647 198.697Z" fill="url(#paint9_linear_17690_262011)"/>
<path d="M216.117 222.131C202.594 222.422 186.496 222.131 175.066 221.985C163.635 222.277 147.537 222.422 134.014 222.131C147.376 215.29 151.883 202.628 152.688 194.187H197.282C198.248 202.628 202.755 215.29 216.117 222.131Z" fill="url(#paint10_linear_17690_262011)"/>
<path d="M258.94 88.2287V192.875C258.94 195.495 256.686 197.387 253.949 197.387H96.181C93.4443 197.387 91.1904 195.349 91.1904 192.875V88.2287C91.1904 85.7544 93.4443 83.7168 96.181 83.7168H253.949C256.686 83.7168 258.94 85.6089 258.94 88.2287Z" fill="#E8EDF8"/>
<path d="M258.939 88.2287V178.466H91.3511V88.2287C91.3511 85.7544 93.6049 83.7168 96.3417 83.7168H254.11C256.685 83.7168 258.939 85.6089 258.939 88.2287Z" fill="#B9C0D0"/>
<path d="M252.984 89.248H97.3086V173.227H252.823V89.248H252.984Z" fill="white"/>
<path d="M175.065 191.566C177.377 191.566 179.251 189.872 179.251 187.782C179.251 185.692 177.377 183.998 175.065 183.998C172.753 183.998 170.879 185.692 170.879 187.782C170.879 189.872 172.753 191.566 175.065 191.566Z" fill="#B9C0D0"/>
<path d="M125.32 168.13H105.358C103.748 168.13 102.46 166.966 102.46 165.51V95.9401C102.46 94.4847 103.748 93.3203 105.358 93.3203H125.32C126.93 93.3203 128.218 94.4847 128.218 95.9401V165.51C128.218 166.966 126.93 168.13 125.32 168.13Z" fill="#E8EDF8"/>
<path d="M115.338 107.296C118.006 107.296 120.168 105.341 120.168 102.93C120.168 100.518 118.006 98.5635 115.338 98.5635C112.671 98.5635 110.509 100.518 110.509 102.93C110.509 105.341 112.671 107.296 115.338 107.296Z" fill="url(#paint11_linear_17690_262011)"/>
<path d="M123.871 113.699H106.806C106.484 113.699 106.323 113.553 106.323 113.262V112.098C106.323 111.807 106.484 111.661 106.806 111.661H123.71C124.032 111.661 124.193 111.807 124.193 112.098V113.262C124.354 113.553 124.032 113.699 123.871 113.699Z" fill="url(#paint12_linear_17690_262011)"/>
<path d="M123.871 119.809H106.806C106.484 119.809 106.323 119.664 106.323 119.372V118.208C106.323 117.917 106.484 117.771 106.806 117.771H123.71C124.032 117.771 124.193 117.917 124.193 118.208V119.372C124.354 119.664 124.032 119.809 123.871 119.809Z" fill="url(#paint13_linear_17690_262011)"/>
<path d="M123.871 125.924H106.806C106.484 125.924 106.323 125.779 106.323 125.488V124.323C106.323 124.032 106.484 123.887 106.806 123.887H123.71C124.032 123.887 124.193 124.032 124.193 124.323V125.488C124.354 125.779 124.032 125.924 123.871 125.924Z" fill="url(#paint14_linear_17690_262011)"/>
<path d="M123.871 132.182H106.806C106.484 132.182 106.323 132.037 106.323 131.746V130.581C106.323 130.29 106.484 130.145 106.806 130.145H123.71C124.032 130.145 124.193 130.29 124.193 130.581V131.746C124.354 131.891 124.032 132.182 123.871 132.182Z" fill="url(#paint15_linear_17690_262011)"/>
<path d="M123.871 138.298H106.806C106.484 138.298 106.323 138.153 106.323 137.862V136.697C106.323 136.406 106.484 136.261 106.806 136.261H123.71C124.032 136.261 124.193 136.406 124.193 136.697V137.862C124.354 138.007 124.032 138.298 123.871 138.298Z" fill="url(#paint16_linear_17690_262011)"/>
<path d="M123.871 144.409H106.806C106.484 144.409 106.323 144.263 106.323 143.972V142.808C106.323 142.517 106.484 142.371 106.806 142.371H123.71C124.032 142.371 124.193 142.517 124.193 142.808V143.972C124.354 144.263 124.032 144.409 123.871 144.409Z" fill="url(#paint17_linear_17690_262011)"/>
<path d="M120.813 150.524H110.026C109.704 150.524 109.543 150.378 109.543 150.087V148.923C109.543 148.632 109.704 148.486 110.026 148.486H120.813C121.135 148.486 121.296 148.632 121.296 148.923V150.087C121.296 150.378 120.974 150.524 120.813 150.524Z" fill="url(#paint18_linear_17690_262011)"/>
<path d="M185.369 157.653H142.385V159.836H185.369V157.653Z" fill="url(#paint19_linear_17690_262011)"/>
<path d="M165.728 163.477H142.385V165.66H165.728V163.477Z" fill="url(#paint20_linear_17690_262011)"/>
<path d="M237.045 157.653H194.062V159.836H237.045V157.653Z" fill="url(#paint21_linear_17690_262011)"/>
<path d="M217.405 163.477H194.062V165.66H217.405V163.477Z" fill="url(#paint22_linear_17690_262011)"/>
<path d="M130.492 213.366C130.492 217.45 126.947 220.814 122.641 220.814H79.0784C74.7728 220.814 71.2271 217.45 71.2271 213.366V116.292C71.2271 112.207 74.7728 108.843 79.0784 108.843H122.388C126.693 108.843 130.239 112.207 130.239 116.292L130.492 213.366Z" fill="white"/>
<path d="M122.641 108.599C126.947 108.599 130.492 111.963 130.492 116.047V213.121C130.492 217.206 126.947 220.57 122.641 220.57H79.0784C74.7728 220.57 71.2271 217.206 71.2271 213.121V116.288C71.2271 112.203 74.7728 108.839 79.0784 108.839L122.641 108.599Z" fill="#989FB0"/>
<path d="M126.694 116.288V213.362C126.694 215.284 125.174 217.206 122.895 217.206H122.641H79.0787H78.8254C76.7993 217.206 75.0264 215.524 75.0264 213.362V116.288C75.0264 114.125 76.7993 112.443 78.8254 112.443H85.1572C86.1703 112.443 86.6768 113.164 86.6768 113.885C86.6768 115.327 87.9432 116.768 89.7161 116.768H111.751C113.27 116.768 114.79 115.567 114.79 113.885C114.79 112.924 115.55 112.443 116.056 112.443H122.135C124.667 112.203 126.694 114.125 126.694 116.288Z" fill="white"/>
<path d="M104.659 113.885H98.8339C98.3273 113.885 97.8208 113.405 97.8208 112.924C97.8208 112.443 98.3273 111.963 98.8339 111.963H104.659C105.166 111.963 105.672 112.443 105.672 112.924C105.419 113.405 104.912 113.885 104.659 113.885Z" fill="white"/>
<path d="M95.5411 113.885H95.0346C94.528 113.885 94.0215 113.405 94.0215 112.924C94.0215 112.443 94.528 111.963 95.0346 111.963H95.5411C96.0477 111.963 96.5542 112.443 96.5542 112.924C96.5542 113.405 96.0477 113.885 95.5411 113.885Z" fill="white"/>
<path d="M120.615 148.486H81.1048C79.8384 148.486 79.0786 147.525 79.0786 146.564V127.581C79.0786 126.38 80.0917 125.659 81.1048 125.659H120.868C122.135 125.659 122.894 126.62 122.894 127.581V146.564C122.641 147.525 121.881 148.486 120.615 148.486Z" fill="#989FB0"/>
<path opacity="0.8" d="M120.615 176.839H81.1048C79.8384 176.839 79.0786 175.877 79.0786 174.916V155.934C79.0786 154.733 80.0917 154.012 81.1048 154.012H120.868C122.135 154.012 122.894 154.973 122.894 155.934V174.916C122.641 175.877 121.881 176.839 120.615 176.839Z" fill="#E5E9F1"/>
<path opacity="0.5" d="M120.615 205.19H81.1048C79.8384 205.19 79.0786 204.229 79.0786 203.268V184.286C79.0786 183.084 80.0917 182.363 81.1048 182.363H120.868C122.135 182.363 122.894 183.324 122.894 184.286V203.268C122.641 204.469 121.881 205.19 120.615 205.19Z" fill="#E5E9F1"/>
<path opacity="0.3" d="M122.641 213.121V216.966H122.387H79.078H78.8247V213.121C78.8247 211.92 79.8378 211.199 80.8509 211.199H120.614C121.881 211.199 122.641 212.16 122.641 213.121Z" fill="#E5E9F1"/>
<path d="M157.908 86.6965L191.987 80.5667C194.485 80.0828 196.983 80.5667 198.945 81.6959L225.174 95.4071" stroke="#BBC1CF" stroke-width="3.68056" stroke-miterlimit="10" stroke-linejoin="round"/>
<g filter="url(#filter0_d_17690_262011)">
<path d="M224.799 160.416L138.477 148.64C135.801 148.317 134.017 146.059 134.373 143.639L143.116 87.3429C143.473 84.9233 145.971 83.3102 148.647 83.6328L234.969 95.4083C237.645 95.7309 239.429 97.9892 239.072 100.409L230.33 156.705C229.973 158.964 227.475 160.738 224.799 160.416Z" fill="white"/>
</g>
<path d="M221.972 154.008L144.808 143.112C142.627 142.849 141.172 141.009 141.463 139.037L148.589 93.1521C148.88 91.1799 150.916 89.8652 153.097 90.1281L230.261 101.024C232.443 101.287 233.897 103.127 233.606 105.099L226.48 150.984C226.19 152.825 224.154 154.271 221.972 154.008Z" fill="#EFF3FB"/>
<path d="M270.209 57.9546L282.283 68.8704C283.088 69.5981 284.215 70.0347 285.181 70.0347H315.446V44.4189H268.76V55.1892C269.082 56.3536 269.404 57.2268 270.209 57.9546Z" fill="#B9C0D0"/>
<path d="M298.881 56.0508L308.141 56.0508C309.496 56.0508 310.594 54.9522 310.594 53.5971L310.594 51.0817C310.594 49.7266 309.496 48.628 308.141 48.628L298.881 48.628C297.526 48.628 296.427 49.7266 296.427 51.0817L296.427 53.5971C296.427 54.9522 297.526 56.0508 298.881 56.0508Z" fill="white"/>
<path d="M280.568 56.0508L289.827 56.0508C291.182 56.0508 292.281 54.9522 292.281 53.5971L292.281 51.0817C292.281 49.7266 291.182 48.628 289.827 48.628L280.568 48.628C279.212 48.628 278.114 49.7266 278.114 51.0817L278.114 53.5971C278.114 54.9522 279.212 56.0508 280.568 56.0508Z" fill="white"/>
<path d="M2.48535 223.44H399.124" stroke="#CDD6E1" stroke-width="3.68056" stroke-miterlimit="10" stroke-linecap="round" stroke-linejoin="round"/>
<path d="M122.78 222.28H101.046L102.012 220.097L104.266 214.566L106.198 209.763L108.452 204.233L110.062 200.449C110.384 199.721 111.189 199.139 111.994 199.139C112.798 199.139 113.603 199.575 113.925 200.449L115.535 204.233L117.789 209.763L119.721 214.566L121.975 220.097L122.78 222.28Z" fill="#E8EDF8"/>
<path d="M117.795 209.761H106.211L108.388 204.376H115.587L117.795 209.761Z" fill="url(#paint23_linear_17690_262011)"/>
<path d="M121.968 220.095H102.005L104.259 214.564H119.714L121.968 220.095Z" fill="url(#paint24_linear_17690_262011)"/>
<path d="M122.78 222.281H100.886C100.242 222.281 99.5977 221.844 99.5977 221.117C99.5977 220.534 100.081 219.952 100.886 219.952H122.78C123.424 219.952 124.068 220.389 124.068 221.117C124.068 221.844 123.585 222.281 122.78 222.281Z" fill="#E8EDF8"/>
<path d="M258.738 222.28H237.004L237.97 220.097L240.224 214.566L242.156 209.763L244.41 204.233L246.02 200.449C246.342 199.721 247.147 199.139 247.952 199.139C248.756 199.139 249.561 199.575 249.883 200.449L251.493 204.233L253.747 209.763L255.679 214.566L257.933 220.097L258.738 222.28Z" fill="#E8EDF8"/>
<path d="M253.753 209.761H242.168L244.345 204.376H251.544L253.753 209.761Z" fill="url(#paint25_linear_17690_262011)"/>
<path d="M257.926 220.095H237.963L240.217 214.564H255.672L257.926 220.095Z" fill="url(#paint26_linear_17690_262011)"/>
<path d="M258.737 222.281H236.843C236.199 222.281 235.555 221.844 235.555 221.117C235.555 220.534 236.038 219.952 236.843 219.952H258.737C259.381 219.952 260.025 220.389 260.025 221.117C260.025 221.844 259.542 222.281 258.737 222.281Z" fill="#E8EDF8"/>
<path d="M169.368 124.141C171.13 124.247 173.352 122.417 174.216 120.149C175.079 117.881 174.319 115.872 172.557 115.767C170.795 115.661 168.573 117.49 167.709 119.758C166.846 122.027 167.606 124.035 169.368 124.141Z" fill="#989FB0"/>
<path d="M201.63 128.574C203.392 128.679 205.614 126.85 206.477 124.582C207.341 122.314 206.581 120.305 204.819 120.199C203.056 120.093 200.835 121.923 199.971 124.191C199.041 126.634 199.868 128.468 201.63 128.574Z" fill="#989FB0"/>
<path d="M173.711 107.345L162.898 110.972L162.999 112.856L173.812 109.23L173.711 107.345Z" fill="#989FB0"/>
<path d="M205.805 111.661L203.177 113.924L210.647 119.371L213.276 117.108L205.805 111.661Z" fill="#989FB0"/>
<path d="M184.05 135.296C186.258 135.425 188.706 133.843 189.519 131.761C190.331 129.68 189.2 127.887 186.992 127.758C184.784 127.628 182.336 129.211 181.523 131.292C180.711 133.374 181.842 135.166 184.05 135.296Z" fill="#989FB0"/>
<path d="M116.943 236.604H330.812" stroke="#CDD6E1" stroke-width="3.68056" stroke-miterlimit="10" stroke-linecap="round" stroke-linejoin="round"/>
<path d="M47.3809 236.604H74.4082" stroke="#CDD6E1" stroke-width="3.68056" stroke-miterlimit="10" stroke-linecap="round" stroke-linejoin="round"/>
<defs>
<filter id="filter0_d_17690_262011" x="80.3466" y="71.3233" width="212.753" height="184.824" filterUnits="userSpaceOnUse" color-interpolation-filters="sRGB">
<feFlood flood-opacity="0" result="BackgroundImageFix"/>
<feColorMatrix in="SourceAlpha" type="matrix" values="0 0 0 0 0 0 0 0 0 0 0 0 0 0 0 0 0 0 127 0" result="hardAlpha"/>
<feOffset dy="41.713"/>
<feGaussianBlur stdDeviation="26.9908"/>
<feColorMatrix type="matrix" values="0 0 0 0 0.397708 0 0 0 0 0.47749 0 0 0 0 0.575 0 0 0 0.37 0"/>
<feBlend mode="normal" in2="BackgroundImageFix" result="effect1_dropShadow_17690_262011"/>
<feBlend mode="normal" in="SourceGraphic" in2="effect1_dropShadow_17690_262011" result="shape"/>
</filter>
<linearGradient id="paint0_linear_17690_262011" x1="347.756" y1="192.15" x2="347.756" y2="205.395" gradientUnits="userSpaceOnUse">
<stop stop-color="#E3E8F0"/>
<stop offset="1" stop-color="#CCD3DE"/>
</linearGradient>
<linearGradient id="paint1_linear_17690_262011" x1="358.863" y1="192.15" x2="358.863" y2="205.395" gradientUnits="userSpaceOnUse">
<stop stop-color="#E3E8F0"/>
<stop offset="1" stop-color="#CCD3DE"/>
</linearGradient>
<linearGradient id="paint2_linear_17690_262011" x1="369.971" y1="192.15" x2="369.971" y2="205.395" gradientUnits="userSpaceOnUse">
<stop stop-color="#E3E8F0"/>
<stop offset="1" stop-color="#CCD3DE"/>
</linearGradient>
<linearGradient id="paint3_linear_17690_262011" x1="381.079" y1="192.15" x2="381.079" y2="205.395" gradientUnits="userSpaceOnUse">
<stop stop-color="#E3E8F0"/>
<stop offset="1" stop-color="#CCD3DE"/>
</linearGradient>
<linearGradient id="paint4_linear_17690_262011" x1="26.2315" y1="188.364" x2="26.2315" y2="203.355" gradientUnits="userSpaceOnUse">
<stop stop-color="#E3E8F0"/>
<stop offset="1" stop-color="#CCD3DE"/>
</linearGradient>
<linearGradient id="paint5_linear_17690_262011" x1="38.9498" y1="188.364" x2="38.9498" y2="203.355" gradientUnits="userSpaceOnUse">
<stop stop-color="#E3E8F0"/>
<stop offset="1" stop-color="#CCD3DE"/>
</linearGradient>
<linearGradient id="paint6_linear_17690_262011" x1="51.6676" y1="188.364" x2="51.6676" y2="203.355" gradientUnits="userSpaceOnUse">
<stop stop-color="#E3E8F0"/>
<stop offset="1" stop-color="#CCD3DE"/>
</linearGradient>
<linearGradient id="paint7_linear_17690_262011" x1="64.3858" y1="188.364" x2="64.3858" y2="203.355" gradientUnits="userSpaceOnUse">
<stop stop-color="#E3E8F0"/>
<stop offset="1" stop-color="#CCD3DE"/>
</linearGradient>
<linearGradient id="paint8_linear_17690_262011" x1="273.05" y1="220.81" x2="334.5" y2="220.81" gradientUnits="userSpaceOnUse">
<stop stop-color="#B0BACC"/>
<stop offset="1" stop-color="#969EAE"/>
</linearGradient>
<linearGradient id="paint9_linear_17690_262011" x1="281.22" y1="202.463" x2="326.575" y2="202.463" gradientUnits="userSpaceOnUse">
<stop stop-color="#B0BACC"/>
<stop offset="1" stop-color="#969EAE"/>
</linearGradient>
<linearGradient id="paint10_linear_17690_262011" x1="175.137" y1="221.437" x2="175.137" y2="196.434" gradientUnits="userSpaceOnUse">
<stop stop-color="#F5F8FF"/>
<stop offset="0.9913" stop-color="#D8E0EB"/>
</linearGradient>
<linearGradient id="paint11_linear_17690_262011" x1="118.36" y1="98.5635" x2="112.274" y2="98.5635" gradientUnits="userSpaceOnUse">
<stop stop-color="#E3E8F0"/>
<stop offset="1" stop-color="#CCD3DE"/>
</linearGradient>
<linearGradient id="paint12_linear_17690_262011" x1="120.883" y1="111.661" x2="109.597" y2="111.661" gradientUnits="userSpaceOnUse">
<stop stop-color="#E3E8F0"/>
<stop offset="1" stop-color="#CCD3DE"/>
</linearGradient>
<linearGradient id="paint13_linear_17690_262011" x1="120.883" y1="117.771" x2="109.597" y2="117.771" gradientUnits="userSpaceOnUse">
<stop stop-color="#E3E8F0"/>
<stop offset="1" stop-color="#CCD3DE"/>
</linearGradient>
<linearGradient id="paint14_linear_17690_262011" x1="120.883" y1="123.887" x2="109.597" y2="123.887" gradientUnits="userSpaceOnUse">
<stop stop-color="#E3E8F0"/>
<stop offset="1" stop-color="#CCD3DE"/>
</linearGradient>
<linearGradient id="paint15_linear_17690_262011" x1="120.883" y1="130.145" x2="109.597" y2="130.145" gradientUnits="userSpaceOnUse">
<stop stop-color="#E3E8F0"/>
<stop offset="1" stop-color="#CCD3DE"/>
</linearGradient>
<linearGradient id="paint16_linear_17690_262011" x1="120.883" y1="136.261" x2="109.597" y2="136.261" gradientUnits="userSpaceOnUse">
<stop stop-color="#E3E8F0"/>
<stop offset="1" stop-color="#CCD3DE"/>
</linearGradient>
<linearGradient id="paint17_linear_17690_262011" x1="120.883" y1="142.371" x2="109.597" y2="142.371" gradientUnits="userSpaceOnUse">
<stop stop-color="#E3E8F0"/>
<stop offset="1" stop-color="#CCD3DE"/>
</linearGradient>
<linearGradient id="paint18_linear_17690_262011" x1="119.095" y1="148.486" x2="111.691" y2="148.486" gradientUnits="userSpaceOnUse">
<stop stop-color="#E3E8F0"/>
<stop offset="1" stop-color="#CCD3DE"/>
</linearGradient>
<linearGradient id="paint19_linear_17690_262011" x1="177.321" y1="157.653" x2="150.24" y2="157.653" gradientUnits="userSpaceOnUse">
<stop stop-color="#E3E8F0"/>
<stop offset="1" stop-color="#CCD3DE"/>
</linearGradient>
<linearGradient id="paint20_linear_17690_262011" x1="161.358" y1="163.477" x2="146.651" y2="163.477" gradientUnits="userSpaceOnUse">
<stop stop-color="#E3E8F0"/>
<stop offset="1" stop-color="#CCD3DE"/>
</linearGradient>
<linearGradient id="paint21_linear_17690_262011" x1="228.998" y1="157.653" x2="201.917" y2="157.653" gradientUnits="userSpaceOnUse">
<stop stop-color="#E3E8F0"/>
<stop offset="1" stop-color="#CCD3DE"/>
</linearGradient>
<linearGradient id="paint22_linear_17690_262011" x1="213.034" y1="163.477" x2="198.327" y2="163.477" gradientUnits="userSpaceOnUse">
<stop stop-color="#E3E8F0"/>
<stop offset="1" stop-color="#CCD3DE"/>
</linearGradient>
<linearGradient id="paint23_linear_17690_262011" x1="115.626" y1="204.376" x2="108.328" y2="204.376" gradientUnits="userSpaceOnUse">
<stop stop-color="#E3E8F0"/>
<stop offset="1" stop-color="#CCD3DE"/>
</linearGradient>
<linearGradient id="paint24_linear_17690_262011" x1="118.23" y1="214.564" x2="105.653" y2="214.564" gradientUnits="userSpaceOnUse">
<stop stop-color="#E3E8F0"/>
<stop offset="1" stop-color="#CCD3DE"/>
</linearGradient>
<linearGradient id="paint25_linear_17690_262011" x1="251.584" y1="204.376" x2="244.285" y2="204.376" gradientUnits="userSpaceOnUse">
<stop stop-color="#E3E8F0"/>
<stop offset="1" stop-color="#CCD3DE"/>
</linearGradient>
<linearGradient id="paint26_linear_17690_262011" x1="254.188" y1="214.564" x2="241.611" y2="214.564" gradientUnits="userSpaceOnUse">
<stop stop-color="#E3E8F0"/>
<stop offset="1" stop-color="#CCD3DE"/>
</linearGradient>
</defs>
</svg>
